<svg width="200" height="200" viewBox="0 0 200 200" xmlns="http://www.w3.org/2000/svg">
  <defs>
    <linearGradient id="bg3" x1="0%" y1="0%" x2="100%" y2="100%">
      <stop offset="0%" style="stop-color:#059669;stop-opacity:1" />
      <stop offset="100%" style="stop-color:#10b981;stop-opacity:1" />
    </linearGradient>
  </defs>
  <!-- Background -->
  <rect width="200" height="200" fill="url(#bg3)"/>
  <!-- Head -->
  <circle cx="100" cy="75" r="35" fill="#f0c6a0"/>
  <!-- Hair (messy/casual) -->
  <path d="M 70 55 Q 68 45 75 42 Q 80 38 88 40 Q 95 35 100 35 Q 105 35 112 40 Q 120 38 125 42 Q 132 45 130 55 L 128 65 Q 125 58 120 58 L 115 62 L 110 58 L 105 62 L 100 58 L 95 62 L 90 58 L 85 62 L 80 58 Q 75 58 72 65 Z" fill="#4a3728"/>
  <!-- Eyes -->
  <circle cx="88" cy="75" r="3" fill="#1a1a1a"/>
  <circle cx="112" cy="75" r="3" fill="#1a1a1a"/>
  <!-- Smile -->
  <path d="M 90 85 Q 100 90 110 85" stroke="#8b4513" stroke-width="2" fill="none"/>
  <!-- T-shirt -->
  <rect x="60" y="110" width="80" height="90" fill="#f97316" rx="5"/>
  <!-- T-shirt design -->
  <circle cx="100" cy="145" r="15" fill="#fed7aa" opacity="0.5"/>
</svg>
