<svg width="200" height="200" viewBox="0 0 200 200" xmlns="http://www.w3.org/2000/svg">
  <defs>
    <linearGradient id="bg12" x1="0%" y1="0%" x2="100%" y2="100%">
      <stop offset="0%" style="stop-color:#4f46e5;stop-opacity:1" />
      <stop offset="100%" style="stop-color:#818cf8;stop-opacity:1" />
    </linearGradient>
  </defs>
  <!-- Background -->
  <rect width="200" height="200" fill="url(#bg12)"/>
  <!-- Head -->
  <circle cx="100" cy="75" r="35" fill="#f0c6a0"/>
  <!-- Hair (friendly/approachable) -->
  <path d="M 68 58 Q 68 40 100 38 Q 132 40 132 58 L 132 75 Q 130 62 122 60 L 118 68 L 112 62 L 106 68 L 100 62 L 94 68 L 88 62 L 82 68 L 78 60 Q 70 62 68 75 Z" fill="#8b5a3c"/>
  <!-- Eyes (warm/friendly) -->
  <circle cx="88" cy="75" r="3" fill="#1a1a1a"/>
  <circle cx="112" cy="75" r="3" fill="#1a1a1a"/>
  <!-- Welcoming smile -->
  <path d="M 86 85 Q 100 93 114 85" stroke="#8b4513" stroke-width="2.5" fill="none"/>
  <!-- Headset (customer support) -->
  <path d="M 60 70 Q 58 75 60 80" stroke="#1e293b" stroke-width="4" fill="none"/>
  <circle cx="60" cy="75" r="8" fill="#1e293b"/>
  <path d="M 60 83 Q 70 88 78 85" stroke="#1e293b" stroke-width="2.5" fill="none"/>
  <circle cx="78" cy="85" r="3" fill="#dc2626"/>
  <!-- Professional casual top -->
  <rect x="60" y="110" width="80" height="90" fill="#06b6d4" rx="5"/>
  <!-- Company badge -->
  <rect x="72" y="130" width="30" height="25" fill="#ffffff" rx="3"/>
  <circle cx="87" cy="142" r="6" fill="#4f46e5" opacity="0.3"/>
  <text x="80" y="158" font-family="Arial" font-size="8" fill="#1e293b">SUPPORT</text>
</svg>
