<svg width="200" height="200" viewBox="0 0 200 200" xmlns="http://www.w3.org/2000/svg">
  <defs>
    <linearGradient id="bg10" x1="0%" y1="0%" x2="100%" y2="100%">
      <stop offset="0%" style="stop-color:#047857;stop-opacity:1" />
      <stop offset="100%" style="stop-color:#10b981;stop-opacity:1" />
    </linearGradient>
  </defs>
  <!-- Background -->
  <rect width="200" height="200" fill="url(#bg10)"/>
  <!-- Head -->
  <circle cx="100" cy="75" r="35" fill="#d4a574"/>
  <!-- Hair (professional medical) -->
  <path d="M 68 62 Q 68 42 100 40 Q 132 42 132 62 L 132 74 Q 128 64 120 62 L 116 70 L 110 64 L 104 70 L 100 64 L 96 70 L 90 64 L 84 70 L 80 62 Q 72 64 68 74 Z" fill="#3d2817"/>
  <!-- Eyes -->
  <circle cx="88" cy="75" r="3" fill="#1a1a1a"/>
  <circle cx="112" cy="75" r="3" fill="#1a1a1a"/>
  <!-- Professional smile -->
  <path d="M 90 86 Q 100 90 110 86" stroke="#8b4513" stroke-width="2" fill="none"/>
  <!-- White coat -->
  <rect x="55" y="110" width="90" height="90" fill="#f8fafc" rx="5"/>
  <!-- Collar -->
  <path d="M 75 110 L 85 120 L 85 135" fill="#f8fafc" stroke="#cbd5e1" stroke-width="2"/>
  <path d="M 125 110 L 115 120 L 115 135" fill="#f8fafc" stroke="#cbd5e1" stroke-width="2"/>
  <!-- Stethoscope -->
  <circle cx="120" cy="125" r="8" fill="#475569" opacity="0.7"/>
  <path d="M 120 133 Q 110 140 100 145" stroke="#475569" stroke-width="3" fill="none" opacity="0.7"/>
  <circle cx="100" cy="145" r="5" fill="#475569" opacity="0.7"/>
  <!-- Name tag -->
  <rect x="70" y="155" width="35" height="20" fill="#ef4444" rx="2"/>
  <line x1="75" y1="162" x2="100" y2="162" stroke="#ffffff" stroke-width="1"/>
  <line x1="75" y1="168" x2="95" y2="168" stroke="#ffffff" stroke-width="1"/>
</svg>
