<svg width="200" height="200" viewBox="0 0 200 200" xmlns="http://www.w3.org/2000/svg">
  <defs>
    <linearGradient id="bg8" x1="0%" y1="0%" x2="100%" y2="100%">
      <stop offset="0%" style="stop-color:#dc2626;stop-opacity:1" />
      <stop offset="100%" style="stop-color:#f87171;stop-opacity:1" />
    </linearGradient>
  </defs>
  <!-- Background -->
  <rect width="200" height="200" fill="url(#bg8)"/>
  <!-- Head -->
  <circle cx="100" cy="75" r="35" fill="#c08860"/>
  <!-- Hair (athletic/short) -->
  <path d="M 70 62 Q 70 45 100 42 Q 130 45 130 62 L 128 72 Q 125 65 118 63 L 115 70 L 110 65 L 105 70 L 100 65 L 95 70 L 90 65 L 85 70 L 82 63 Q 75 65 72 72 Z" fill="#2d1a0f"/>
  <!-- Sweatband -->
  <rect x="68" y="58" width="64" height="6" fill="#ffffff" rx="2"/>
  <!-- Eyes -->
  <circle cx="88" cy="76" r="3" fill="#1a1a1a"/>
  <circle cx="112" cy="76" r="3" fill="#1a1a1a"/>
  <!-- Determined expression -->
  <path d="M 90 86 L 110 86" stroke="#8b4513" stroke-width="2"/>
  <!-- Athletic tank top -->
  <path d="M 60 110 L 65 110 L 70 130 L 70 200 L 130 200 L 130 130 L 135 110 L 140 110 L 140 135 L 135 135 L 135 200 L 65 200 L 65 135 L 60 135 Z" fill="#1a1a1a"/>
  <!-- Tank straps -->
  <rect x="75" y="110" width="10" height="25" fill="#1a1a1a"/>
  <rect x="115" y="110" width="10" height="25" fill="#1a1a1a"/>
  <!-- Whistle -->
  <circle cx="100" cy="118" r="5" fill="#fbbf24" stroke="#f59e0b" stroke-width="1"/>
  <line x1="100" y1="113" x2="100" y2="108" stroke="#71717a" stroke-width="1"/>
</svg>
