<svg width="200" height="200" viewBox="0 0 200 200" xmlns="http://www.w3.org/2000/svg">
  <defs>
    <linearGradient id="bg6" x1="0%" y1="0%" x2="100%" y2="100%">
      <stop offset="0%" style="stop-color:#0891b2;stop-opacity:1" />
      <stop offset="100%" style="stop-color:#06b6d4;stop-opacity:1" />
    </linearGradient>
  </defs>
  <!-- Background -->
  <rect width="200" height="200" fill="url(#bg6)"/>
  <!-- Head -->
  <circle cx="100" cy="75" r="35" fill="#e0b090"/>
  <!-- Hair (modern tech style) -->
  <path d="M 70 58 Q 70 40 100 38 Q 130 40 130 58 L 128 70 Q 125 62 118 60 L 115 68 L 108 62 L 100 68 L 92 62 L 85 68 L 82 60 Q 75 62 72 70 Z" fill="#1a1a1a"/>
  <!-- Eyes -->
  <circle cx="88" cy="75" r="3" fill="#1a1a1a"/>
  <circle cx="112" cy="75" r="3" fill="#1a1a1a"/>
  <!-- Headset -->
  <path d="M 65 70 Q 63 75 65 80" stroke="#1e293b" stroke-width="3" fill="none"/>
  <circle cx="65" cy="75" r="6" fill="#1e293b"/>
  <path d="M 65 81 Q 75 85 80 82" stroke="#1e293b" stroke-width="2" fill="none"/>
  <!-- Hoodie -->
  <rect x="60" y="110" width="80" height="90" fill="#374151" rx="5"/>
  <!-- Hood -->
  <path d="M 65 110 L 65 125 Q 70 115 100 115 Q 130 115 135 125 L 135 110" fill="#4b5563"/>
  <!-- Code symbol on shirt -->
  <text x="90" y="160" font-family="monospace" font-size="24" fill="#10b981" opacity="0.7">&lt;/&gt;</text>
</svg>
